<svg width="124" height="50" viewBox="0 0 124 50" fill="none" xmlns="http://www.w3.org/2000/svg">
<path d="M124 0H0V50H124V0Z" fill="url(#paint0_linear_1669_385)"/>
<mask id="mask0_1669_385" style="mask-type:luminance" maskUnits="userSpaceOnUse" x="0" y="0" width="124" height="50">
<path d="M123.613 0H0V50H123.613V0Z" fill="white"/>
</mask>
<g mask="url(#mask0_1669_385)">
<path d="M14.8897 28.3876C14.8897 28.0417 14.9048 27.6657 14.9273 27.2747C14.9574 26.8836 15.0401 26.4926 15.1755 26.1091C15.3109 25.7256 15.5365 25.3646 15.8373 25.0337C16.1381 24.7029 16.5667 24.4246 17.1156 24.2065C16.7096 24.0411 16.3787 23.8381 16.1155 23.5974C15.8523 23.3568 15.6342 23.1011 15.4688 22.8154C15.3033 22.5296 15.1905 22.2438 15.1229 21.9656C15.0552 21.6798 15.0251 21.4242 15.0251 21.1835V19.8375C15.0251 19.4916 15.0552 19.0328 15.1078 18.4764C15.1605 17.9199 15.356 17.3709 15.6869 16.837C16.0177 16.3031 16.5441 15.8444 17.266 15.4609C17.988 15.0774 19.0107 14.8818 20.3342 14.8818C21.6577 14.8818 22.6729 15.0774 23.4023 15.4609C24.1242 15.8444 24.6581 16.3031 24.9815 16.837C25.3124 17.3709 25.5004 17.9124 25.5605 18.4764C25.6132 19.0328 25.6432 19.4916 25.6432 19.8375V21.1835C25.6432 21.4242 25.6056 21.6874 25.5304 21.9656C25.4552 22.2514 25.3349 22.5296 25.177 22.8078C25.0116 23.0861 24.786 23.3418 24.5002 23.5899C24.2145 23.8381 23.8685 24.0411 23.47 24.2065C24.0189 24.4096 24.4476 24.6427 24.7484 24.9059C25.0492 25.1691 25.2823 25.4849 25.4327 25.8384C25.5906 26.1918 25.6808 26.5828 25.7184 27.004C25.756 27.4251 25.7711 27.8838 25.7711 28.3801V30.027C25.7711 31.546 25.3048 32.7567 24.3799 33.6441C23.4549 34.5314 22.1014 34.9751 20.3191 34.9751C18.5369 34.9751 17.1908 34.5314 16.2584 33.6441C15.3334 32.7567 14.8672 31.546 14.8672 30.027V28.3876H14.8897ZM19.2889 21.3189C19.2889 21.8528 19.3867 22.1987 19.5897 22.3491C19.7927 22.4995 20.0409 22.5822 20.3342 22.5822C20.6124 22.5822 20.853 22.507 21.0636 22.3491C21.2742 22.1912 21.3794 21.8528 21.3794 21.3189V19.5066C21.3794 18.9727 21.2742 18.6343 21.0636 18.4764C20.853 18.3184 20.6124 18.2432 20.3342 18.2432C20.0409 18.2432 19.7927 18.3184 19.5897 18.4764C19.3867 18.6343 19.2889 18.9802 19.2889 19.5066V21.3189ZM19.2889 30.3654C19.2889 30.8993 19.3867 31.2452 19.5897 31.4031C19.7927 31.561 20.0409 31.6362 20.3342 31.6362C20.6124 31.6362 20.853 31.561 21.0636 31.4031C21.2742 31.2452 21.3794 30.8993 21.3794 30.3654V27.2145C21.3794 26.6806 21.2742 26.3347 21.0636 26.1768C20.853 26.0189 20.6124 25.9436 20.3342 25.9436C20.0409 25.9436 19.7927 26.0189 19.5897 26.1768C19.3867 26.3347 19.2889 26.6806 19.2889 27.2145V30.3654Z" fill="white"/>
</g>
<mask id="mask1_1669_385" style="mask-type:luminance" maskUnits="userSpaceOnUse" x="0" y="0" width="124" height="50">
<path d="M123.613 0H0V50H123.613V0Z" fill="white"/>
</mask>
<g mask="url(#mask1_1669_385)">
<path d="M27.0703 19.8373C27.0703 18.3182 27.529 17.1075 28.4615 16.2202C29.3864 15.3328 30.74 14.8892 32.5223 14.8892C34.297 14.8892 35.6506 15.3328 36.583 16.2202C37.508 17.1075 37.9742 18.3182 37.9742 19.8373V30.0418C37.9742 31.5608 37.508 32.7715 36.583 33.6589C35.6581 34.5463 34.3045 34.9899 32.5223 34.9899C30.74 34.9899 29.394 34.5463 28.4615 33.6589C27.5365 32.7715 27.0703 31.5608 27.0703 30.0418V19.8373ZM31.477 30.3652C31.477 30.8991 31.5747 31.245 31.7778 31.3954C31.9808 31.5533 32.229 31.6285 32.5223 31.6285C32.8005 31.6285 33.0411 31.5533 33.2517 31.3954C33.4623 31.2375 33.5675 30.8991 33.5675 30.3652V19.5064C33.5675 18.9725 33.4623 18.6266 33.2517 18.4686C33.0411 18.3107 32.8005 18.2355 32.5223 18.2355C32.229 18.2355 31.9808 18.3107 31.7778 18.4686C31.5747 18.6266 31.477 18.9725 31.477 19.5064V30.3652Z" fill="white"/>
</g>
<mask id="mask2_1669_385" style="mask-type:luminance" maskUnits="userSpaceOnUse" x="0" y="0" width="124" height="50">
<path d="M123.613 0H0V50H123.613V0Z" fill="white"/>
</mask>
<g mask="url(#mask2_1669_385)">
<path d="M42.5938 32.381H46.0078V20.3716H48.0006V32.381H51.4146V17.499H42.5938V32.381Z" fill="white"/>
</g>
<mask id="mask3_1669_385" style="mask-type:luminance" maskUnits="userSpaceOnUse" x="0" y="0" width="124" height="50">
<path d="M123.613 0H0V50H123.613V0Z" fill="white"/>
</mask>
<g mask="url(#mask3_1669_385)">
<path d="M60.401 18.311C60.0099 17.9576 59.5437 17.6944 59.0023 17.5139C58.4608 17.3334 57.8743 17.2432 57.2426 17.2432C56.6109 17.2432 56.0244 17.3334 55.4829 17.5139C54.9415 17.6944 54.4828 17.9576 54.0842 18.311C53.6857 18.6644 53.3849 19.1081 53.1668 19.6571C52.9487 20.1985 52.8359 20.8302 52.8359 21.5521V28.32C52.8359 29.6586 53.227 30.7114 54.0166 31.4784C54.8062 32.2454 55.8815 32.6289 57.2426 32.6289C58.6263 32.6289 59.7016 32.2454 60.4837 31.4784C61.2658 30.7114 61.6568 29.6586 61.6568 28.32V21.5521C61.6568 20.8377 61.544 20.206 61.3259 19.6571C61.1003 19.1156 60.792 18.6644 60.401 18.311ZM58.2352 28.6133C58.2352 28.7111 58.2277 28.8389 58.2127 28.9968C58.1976 29.1547 58.16 29.3051 58.0999 29.4555C58.0397 29.5984 57.942 29.7262 57.8066 29.8315C57.6713 29.9368 57.4833 29.9894 57.2351 29.9894C56.9869 29.9894 56.7914 29.9368 56.6561 29.8315C56.5207 29.7262 56.4154 29.6059 56.3553 29.4555C56.2951 29.3126 56.2575 29.1623 56.25 28.9968C56.2425 28.8389 56.2425 28.7111 56.2425 28.6133V21.2663C56.2425 21.1385 56.2425 21.0031 56.25 20.8452C56.2575 20.6873 56.2951 20.5369 56.3553 20.4015C56.4154 20.2662 56.5207 20.1459 56.6561 20.0481C56.7914 19.9503 56.9869 19.9052 57.2351 19.9052C57.4833 19.9052 57.6713 19.9579 57.8066 20.0481C57.9344 20.1459 58.0322 20.2587 58.0999 20.4015C58.16 20.5369 58.1976 20.6873 58.2127 20.8452C58.2277 21.0031 58.2352 21.146 58.2352 21.2663V28.6133Z" fill="white"/>
</g>
<mask id="mask4_1669_385" style="mask-type:luminance" maskUnits="userSpaceOnUse" x="0" y="0" width="124" height="50">
<path d="M123.613 0H0V50H123.613V0Z" fill="white"/>
</mask>
<g mask="url(#mask4_1669_385)">
<path d="M67.1233 23.3796H66.4841V20.3792H71.0562V17.499H63.0625V32.381H67.9279C68.6874 32.381 69.3191 32.2531 69.8304 32.0125C70.3418 31.7643 70.7479 31.4334 71.0487 31.0199C71.3495 30.6063 71.5675 30.1175 71.6879 29.561C71.8157 29.0045 71.8759 28.4104 71.8759 27.7938C71.8759 26.4026 71.4623 25.3197 70.6351 24.5452C69.8154 23.7631 68.6423 23.3796 67.1233 23.3796ZM68.4317 28.7714C68.4016 29.0271 68.349 29.2376 68.2663 29.3955C68.1836 29.5535 68.0557 29.6738 67.8903 29.749C67.7249 29.8242 67.4993 29.8618 67.206 29.8618H66.4841V25.801H67.2737C67.5369 25.801 67.7474 25.8612 67.9053 25.974C68.0633 26.0943 68.1836 26.2447 68.2663 26.4327C68.349 26.6207 68.4016 26.8313 68.4317 27.0719C68.4618 27.3125 68.4693 27.5682 68.4693 27.8239C68.4693 28.1999 68.4543 28.5157 68.4317 28.7714Z" fill="white"/>
</g>
<mask id="mask5_1669_385" style="mask-type:luminance" maskUnits="userSpaceOnUse" x="0" y="0" width="124" height="50">
<path d="M123.613 0H0V50H123.613V0Z" fill="white"/>
</mask>
<g mask="url(#mask5_1669_385)">
<path d="M76.6797 26.1919H80.3644V23.3118H76.6797V20.3715H80.8833V17.4989H73.2656V32.3808H81.0487V29.5082H76.6797V26.1919Z" fill="white"/>
</g>
<mask id="mask6_1669_385" style="mask-type:luminance" maskUnits="userSpaceOnUse" x="0" y="0" width="124" height="50">
<path d="M123.613 0H0V50H123.613V0Z" fill="white"/>
</mask>
<g mask="url(#mask6_1669_385)">
<path d="M92.3145 17.4989H84.0877C84.0576 18.4915 84.0426 19.5594 84.0275 20.6874C84.0125 21.8229 83.9749 22.9358 83.9147 24.0337C83.8546 25.1316 83.7493 26.1619 83.6064 27.1169C83.4635 28.0794 83.253 28.8766 82.9747 29.5082H82.125V35.1181H85.0051V32.3884H90.3969V35.1181H93.262V29.5082H92.307V17.4989H92.3145ZM88.9005 29.5082H86.3136C86.479 29.0119 86.6144 28.3878 86.7197 27.6433C86.825 26.8988 86.9077 26.0942 86.9754 25.2444C87.043 24.3947 87.1032 23.5073 87.1408 22.6049C87.1859 21.7025 87.216 20.8453 87.2461 20.0256H88.9005V29.5082Z" fill="white"/>
</g>
<mask id="mask7_1669_385" style="mask-type:luminance" maskUnits="userSpaceOnUse" x="0" y="0" width="124" height="50">
<path d="M123.613 0H0V50H123.613V0Z" fill="white"/>
</mask>
<g mask="url(#mask7_1669_385)">
<path d="M96.8304 17.499L94.0781 32.381H97.5147L97.8682 29.7339H100.267L100.575 32.381H104.177L101.38 17.499H96.8304ZM98.2216 27.0794L99.0939 19.8152H99.139L99.9437 27.0794H98.2216Z" fill="white"/>
</g>
<mask id="mask8_1669_385" style="mask-type:luminance" maskUnits="userSpaceOnUse" x="0" y="0" width="124" height="50">
<path d="M123.613 0H0V50H123.613V0Z" fill="white"/>
</mask>
<g mask="url(#mask8_1669_385)">
<path d="M105.641 17.499V23.3119L106.34 28.0796H108.017L108.724 23.3119V17.499H105.641Z" fill="white"/>
</g>
<mask id="mask9_1669_385" style="mask-type:luminance" maskUnits="userSpaceOnUse" x="0" y="0" width="124" height="50">
<path d="M123.613 0H0V50H123.613V0Z" fill="white"/>
</mask>
<g mask="url(#mask9_1669_385)">
<path d="M108.724 28.9443H105.641V32.3809H108.724V28.9443Z" fill="white"/>
</g>
<defs>
<linearGradient id="paint0_linear_1669_385" x1="0" y1="25" x2="124" y2="25" gradientUnits="userSpaceOnUse">
<stop stop-color="#FF6500"/>
<stop offset="0.51" stop-color="#FF3625"/>
<stop offset="1" stop-color="#DF1221"/>
</linearGradient>
</defs>
</svg>
