<svg version="1.1" xmlns="http://www.w3.org/2000/svg" xmlns:xlink="http://www.w3.org/1999/xlink" x="0px" y="0px" viewBox="-5 -5 60 60" style="fill: #fff;" xml:space="preserve" class="iconInLink2_big_footer uk-svg" width="40" height="40">
<g>
	<path d="M46.894,23.986c0.004,0,0.007,0,0.011,0c0.279,0,0.545-0.117,0.734-0.322c0.192-0.208,0.287-0.487,0.262-0.769
		C46.897,11.852,38.154,3.106,27.11,2.1c-0.28-0.022-0.562,0.069-0.77,0.262c-0.208,0.192-0.324,0.463-0.321,0.746
		C26.193,17.784,28.129,23.781,46.894,23.986z"></path>
	<path d="M46.894,26.014c-18.765,0.205-20.7,6.202-20.874,20.878c-0.003,0.283,0.113,0.554,0.321,0.746
		c0.186,0.171,0.429,0.266,0.679,0.266c0.03,0,0.061-0.001,0.091-0.004c11.044-1.006,19.787-9.751,20.79-20.795
		c0.025-0.282-0.069-0.561-0.262-0.769C47.446,26.128,47.177,26.025,46.894,26.014z"></path>
	<path d="M22.823,2.105C11.814,3.14,3.099,11.884,2.1,22.897c-0.025,0.282,0.069,0.561,0.262,0.769
		c0.189,0.205,0.456,0.321,0.734,0.321c0.004,0,0.008,0,0.012,0c18.703-0.215,20.634-6.209,20.81-20.875
		c0.003-0.283-0.114-0.555-0.322-0.747C23.386,2.173,23.105,2.079,22.823,2.105z"></path>
	<path d="M3.107,26.013c-0.311-0.035-0.555,0.113-0.746,0.321c-0.192,0.208-0.287,0.487-0.262,0.769
		c0.999,11.013,9.715,19.757,20.724,20.792c0.031,0.003,0.063,0.004,0.094,0.004c0.25,0,0.492-0.094,0.678-0.265
		c0.208-0.192,0.325-0.464,0.322-0.747C23.741,32.222,21.811,26.228,3.107,26.013z"></path>
</g>
</svg>