<svg width="24" height="24" viewBox="0 0 24 24" fill="none" xmlns="http://www.w3.org/2000/svg">
<path fill-rule="evenodd" clip-rule="evenodd" d="M18.482 19.7899V19.7879L18.5 19.7449L21.499 4.62494V4.57694C21.499 4.19994 21.359 3.87094 21.057 3.67394C20.792 3.50094 20.487 3.48894 20.273 3.50494C20.0738 3.52295 19.8772 3.5632 19.687 3.62494C19.6059 3.65109 19.5258 3.68045 19.447 3.71294L19.434 3.71794L2.71399 10.2769L2.70899 10.2789C2.65816 10.2963 2.60841 10.3167 2.55999 10.3399C2.44108 10.3934 2.32699 10.4569 2.21899 10.5299C2.00399 10.6779 1.59499 11.0259 1.66399 11.5779C1.72099 12.0359 2.03599 12.3259 2.24899 12.4769C2.37472 12.565 2.50989 12.6388 2.65199 12.6969L2.68399 12.7109L2.69399 12.7139L2.70099 12.7169L5.62699 13.7019C5.61699 13.8849 5.63499 14.0719 5.68399 14.2569L7.14899 19.8159C7.22903 20.119 7.40196 20.3893 7.64352 20.589C7.88507 20.7887 8.18311 20.9077 8.49577 20.9293C8.80843 20.9509 9.12002 20.8741 9.38676 20.7095C9.6535 20.545 9.86201 20.3011 9.98299 20.0119L12.271 17.5659L16.2 20.5779L16.256 20.6019C16.613 20.7579 16.946 20.8069 17.251 20.7659C17.556 20.7239 17.798 20.5959 17.98 20.4509C18.1905 20.2803 18.3583 20.0628 18.47 19.8159L18.478 19.7989L18.481 19.7929L18.482 19.7899ZM7.13399 13.8749C7.11777 13.8133 7.12163 13.748 7.145 13.6887C7.16838 13.6293 7.21006 13.579 7.26399 13.5449L17.185 7.24494C17.185 7.24494 17.769 6.88994 17.748 7.24494C17.748 7.24494 17.852 7.30694 17.539 7.59794C17.243 7.87494 10.468 14.4159 9.78199 15.0779C9.74385 15.115 9.71713 15.1622 9.70499 15.2139L8.59899 19.4339L7.13399 13.8749Z" fill="#A3A3A3"/>
</svg>
